<svg xmlns="http://www.w3.org/2000/svg" width="1200" height="630" viewBox="0 0 1200 630" role="img" aria-label="Rodate dashboard preview">
  <rect width="1200" height="630" fill="#171717"/>
  <path d="M0 0h1200v630H0z" fill="#171717"/>
  <g opacity=".18" stroke="#292929">
    <path d="M0 70h1200M0 140h1200M0 210h1200M0 280h1200M0 350h1200M0 420h1200M0 490h1200M0 560h1200"/>
    <path d="M100 0v630M200 0v630M300 0v630M400 0v630M500 0v630M600 0v630M700 0v630M800 0v630M900 0v630M1000 0v630M1100 0v630"/>
  </g>
  <text x="72" y="116" fill="#f3f3ee" font-family="Georgia, serif" font-size="74" font-weight="500">Rodate</text>
  <text x="76" y="162" fill="#9b9b94" font-family="Arial, sans-serif" font-size="24" font-weight="600">Roblox release note tracker</text>
  <g transform="translate(76 235)">
    <rect width="505" height="285" rx="14" fill="#202020" stroke="rgba(255,255,255,.13)"/>
    <text x="34" y="62" fill="#9b9b94" font-family="monospace" font-size="18" font-weight="700" letter-spacing="2">RELEASE COVERAGE</text>
    <text x="34" y="150" fill="#f3f3ee" font-family="Georgia, serif" font-size="96">23</text>
    <text x="34" y="190" fill="#9b9b94" font-family="Arial, sans-serif" font-size="20">23 indexed / 23 available</text>
    <rect x="260" y="74" width="190" height="22" rx="6" fill="#9b9b94"/>
    <rect x="260" y="128" width="190" height="22" rx="6" fill="#9dc99d"/>
    <rect x="260" y="182" width="154" height="22" rx="6" fill="#d8bd74"/>
  </g>
  <g transform="translate(625 235)">
    <rect width="420" height="285" rx="14" fill="#202020" stroke="rgba(255,255,255,.13)"/>
    <text x="34" y="62" fill="#9b9b94" font-family="monospace" font-size="18" font-weight="700" letter-spacing="2">CHANGES</text>
    <text x="34" y="150" fill="#f3f3ee" font-family="Georgia, serif" font-size="96">423</text>
    <text x="34" y="190" fill="#9b9b94" font-family="Arial, sans-serif" font-size="20">249 live / 174 pending</text>
    <circle cx="304" cy="156" r="58" fill="none" stroke="#9dc99d" stroke-width="20"/>
    <path d="M304 98a58 58 0 1 0 0 116" fill="none" stroke="#d8bd74" stroke-width="20"/>
  </g>
</svg>
